<?xml version="1.0" standalone="no"?>
<!DOCTYPE svg PUBLIC "-//W3C//DTD SVG 20010904//EN"
 "http://www.w3.org/TR/2001/REC-SVG-20010904/DTD/svg10.dtd">
<svg version="1.0" xmlns="http://www.w3.org/2000/svg"
 width="589.000000pt" height="414.000000pt" viewBox="0 0 589.000000 414.000000"
 preserveAspectRatio="xMidYMid meet">
<metadata>
Created by potrace 1.16, written by Peter Selinger 2001-2019
</metadata>
<g transform="translate(0.000000,414.000000) scale(0.100000,-0.100000)"
fill="#ffffff" stroke="none">
<path d="M4125 3053 c-89 -19 -347 -145 -493 -240 -64 -42 -119 -79 -122 -83
-5 -6 -113 -86 -150 -110 -38 -26 -134 -100 -170 -133 -20 -18 -55 -49 -79
-71 l-44 -38 -156 6 c-86 3 -246 8 -356 11 -110 3 -328 10 -485 15 -439 14
-595 19 -1143 31 -500 12 -541 10 -524 -18 4 -6 213 -13 489 -17 266 -4 528
-9 583 -11 105 -5 646 -20 1120 -31 154 -4 291 -8 305 -9 14 0 50 -2 80 -3
l55 -2 -75 -74 c-47 -47 -101 -89 -145 -112 -38 -21 -97 -53 -130 -71 -146
-81 -160 -83 -413 -68 -136 8 -144 9 -174 36 -57 49 -152 70 -228 49 -19 -5
-71 -18 -114 -29 -72 -19 -126 -50 -126 -74 0 -5 -21 -35 -46 -67 -58 -74
-113 -100 -213 -100 l-70 0 -11 53 c-6 28 -14 57 -18 63 -10 16 -53 37 -82 42
-13 2 -29 7 -35 12 -5 4 -30 11 -55 15 -36 5 -49 13 -62 36 -18 31 -54 39 -75
18 -9 -9 -20 -9 -43 1 -49 20 -251 -5 -294 -37 -32 -23 -68 -88 -101 -186 -25
-70 -27 -87 -20 -159 8 -95 28 -167 61 -220 29 -45 88 -104 124 -123 70 -36
261 -47 328 -19 47 19 88 58 113 107 22 41 49 48 86 22 l22 -16 -31 -50 c-24
-40 -31 -63 -32 -106 l0 -55 89 -85 c99 -93 191 -158 274 -191 52 -21 90 -29
256 -52 180 -25 349 -67 428 -107 36 -18 162 -59 242 -77 80 -20 348 -66 377
-66 28 0 118 -44 169 -82 54 -41 87 -54 202 -82 136 -33 164 -33 178 -3 9 19
16 22 61 18 47 -3 54 -1 80 29 15 18 28 36 28 40 0 29 -51 96 -95 124 -190
123 -230 138 -385 152 -151 12 -312 59 -580 166 -164 65 -199 76 -298 92 -37
6 -132 45 -132 55 0 3 48 17 108 30 59 13 148 32 197 43 71 16 109 19 180 13
230 -16 275 -17 355 -5 112 16 283 72 350 114 64 40 175 149 193 188 14 32 18
33 55 14 15 -8 45 -17 67 -20 22 -4 56 -9 75 -12 49 -8 70 15 46 51 -9 14 -22
25 -29 25 -6 0 -21 8 -32 16 -19 15 -17 16 25 10 59 -7 146 -23 170 -31 25 -8
86 45 77 67 -8 23 -111 76 -198 103 l-56 18 23 24 c27 29 255 213 264 213 3 0
17 -26 30 -57 13 -32 47 -107 75 -168 77 -161 100 -218 150 -367 69 -209 94
-271 116 -294 18 -20 19 -26 9 -65 -15 -54 -6 -128 21 -173 25 -43 110 -80
224 -96 74 -11 115 -28 200 -79 45 -27 119 -42 236 -48 157 -9 185 -2 247 58
60 58 69 84 52 142 -16 57 -31 71 -118 114 -45 23 -101 63 -141 100 l-66 62
65 -1 c127 -4 219 24 278 82 28 29 32 39 32 88 0 50 -3 58 -35 88 -25 23 -52
36 -92 45 -66 14 -192 69 -240 105 -27 20 -32 30 -30 62 1 38 -14 73 -126 288
-23 44 -49 96 -58 115 -9 19 -32 66 -52 104 -20 39 -47 95 -60 125 l-24 55
191 -6 c297 -10 644 -10 650 0 14 22 -27 30 -169 30 -207 0 -624 11 -660 17
-23 3 -34 13 -47 42 -9 20 -30 67 -47 105 -17 37 -31 70 -31 72 0 6 -44 101
-103 225 -75 157 -119 209 -206 246 -34 14 -49 15 -86 7z m113 -67 c67 -42
138 -157 210 -341 11 -27 41 -94 66 -148 25 -54 46 -100 46 -103 0 -7 31 -75
97 -214 52 -111 72 -151 160 -325 109 -214 108 -212 90 -250 -15 -32 -45 -54
-94 -69 -20 -6 -26 1 -59 71 -72 154 -92 199 -118 268 -15 39 -37 95 -51 125
-13 30 -33 82 -45 115 -24 67 -64 169 -90 230 -10 22 -35 81 -56 130 -21 50
-56 116 -77 147 -43 62 -119 128 -149 128 -15 0 -17 5 -12 28 10 42 10 44 -3
49 -6 2 -16 -12 -23 -31 -12 -36 -12 -36 -71 -36 -72 0 -147 -24 -289 -92
-183 -88 -461 -269 -672 -435 -54 -43 -74 -53 -105 -53 -75 0 -71 11 54 126
158 145 227 205 290 251 29 21 90 65 135 98 118 86 122 88 254 172 73 47 266
140 360 172 68 24 98 21 152 -13z m-82 -272 c45 -6 118 -75 158 -147 43 -76
111 -240 120 -287 4 -19 11 -55 17 -80 31 -149 48 -257 54 -345 7 -115 15
-157 34 -163 10 -3 12 2 8 20 -4 14 -9 74 -13 134 -3 60 -12 145 -20 189 -7
43 -12 80 -11 82 2 1 23 -50 46 -115 45 -120 65 -169 108 -257 13 -27 36 -79
50 -115 15 -36 42 -94 60 -130 19 -36 48 -91 65 -122 37 -71 33 -97 -23 -151
-72 -67 -172 -99 -319 -99 -119 0 -147 17 -185 112 -17 41 -44 118 -59 170
-16 52 -48 142 -73 200 -25 58 -49 114 -53 125 -4 11 -33 72 -63 135 -110 231
-108 208 -30 335 39 63 62 120 53 129 -10 10 -40 -9 -40 -27 0 -5 -17 -40 -38
-76 -21 -36 -44 -82 -51 -101 -18 -44 -49 -79 -131 -143 -90 -70 -217 -183
-265 -236 -56 -61 -125 -154 -125 -169 0 -19 -150 -166 -190 -187 -19 -10 -51
-26 -70 -36 -20 -9 -77 -29 -127 -44 -89 -25 -92 -25 -115 -8 -56 44 -115 113
-140 163 -53 110 -73 315 -43 428 9 32 37 98 63 149 49 97 58 103 132 103 59
0 62 -8 24 -62 -34 -50 -51 -94 -41 -104 11 -11 26 7 58 67 37 69 153 182 234
228 27 16 59 38 70 48 29 28 278 192 360 238 133 74 224 115 307 139 80 23
107 25 204 10z m-1388 -666 c-48 -98 -81 -231 -75 -303 18 -193 67 -328 146
-405 42 -40 48 -49 34 -55 -10 -3 -113 -3 -229 1 -233 8 -258 5 -481 -52 -137
-35 -178 -41 -188 -25 -3 5 -19 12 -36 16 -93 21 -282 135 -294 178 -10 33
-39 87 -47 87 -11 0 -10 -28 3 -52 16 -29 4 -34 -36 -15 -39 19 -105 23 -105
7 0 -5 12 -12 28 -16 48 -10 105 -38 172 -83 36 -24 66 -45 68 -46 2 -2 -8
-21 -22 -42 -35 -53 -56 -126 -56 -200 0 -34 -4 -64 -8 -67 -4 -2 -42 7 -84
21 -62 20 -96 41 -180 107 -132 105 -168 146 -168 191 0 36 41 115 89 171 14
17 53 68 85 113 33 45 83 105 112 134 66 66 104 123 104 156 0 14 14 46 30 70
17 24 30 48 30 52 0 13 56 39 84 39 14 0 50 11 80 25 94 43 187 32 255 -31 18
-17 38 -24 66 -24 65 -1 186 -11 243 -20 29 -5 66 -7 82 -3 17 3 30 4 30 1 0
-2 -12 -29 -26 -59 -29 -59 -51 -165 -41 -192 13 -33 27 -16 27 33 0 91 68
223 120 235 15 3 61 27 101 52 60 37 95 56 116 62 1 1 -12 -27 -29 -61z
m-1900 -18 c7 -11 19 -20 28 -20 8 0 34 9 56 20 23 11 45 20 48 20 3 0 6 -18
5 -40 0 -24 -5 -40 -12 -40 -22 0 -24 -19 -3 -30 14 -8 26 -8 40 0 17 9 18 14
8 30 -15 24 -10 30 24 23 24 -5 26 -8 17 -30 -12 -32 -12 -80 1 -88 5 -3 12 4
14 17 3 13 7 32 9 43 4 18 5 18 6 -2 1 -31 19 -29 31 2 8 20 16 25 45 25 42 0
60 -24 69 -91 6 -42 4 -50 -26 -89 -18 -24 -55 -59 -83 -77 -50 -35 -69 -63
-42 -63 20 0 150 104 166 133 12 23 19 25 100 29 71 2 97 8 139 30 29 15 52
24 52 20 0 -14 -34 -57 -99 -128 -36 -38 -95 -109 -129 -157 -35 -48 -66 -87
-68 -87 -2 0 -20 9 -41 19 -21 11 -60 23 -88 26 -27 4 -65 11 -83 17 -28 8
-33 14 -28 33 4 15 -1 28 -14 40 -21 19 -22 17 -24 -24 -1 -35 -60 -73 -106
-69 -44 4 -51 29 -16 61 17 16 22 27 15 34 -6 6 -6 18 0 36 12 31 -6 55 -49
63 -16 4 -34 18 -45 37 -10 17 -35 47 -56 67 -63 60 -78 144 -33 185 45 42
152 57 172 25z m-226 -73 c-5 -68 21 -126 83 -186 25 -24 45 -48 45 -53 0 -4
16 -16 35 -25 39 -19 43 -35 20 -90 -19 -46 -19 -87 1 -107 22 -23 86 -20 130
6 36 21 37 21 93 3 31 -10 57 -20 59 -21 12 -8 -35 -67 -74 -93 -44 -29 -53
-31 -139 -31 -162 0 -235 35 -299 145 -58 99 -73 267 -32 360 32 72 72 145 80
145 0 0 0 -24 -2 -53z m3020 -236 c41 -9 168 -66 168 -75 0 -4 -82 11 -131 24
-22 6 -62 10 -89 9 -27 -2 -53 1 -57 4 -3 4 6 21 22 37 16 17 31 26 35 21 3
-6 27 -15 52 -20z m133 -19 c-3 -3 -11 0 -18 7 -9 10 -8 11 6 5 10 -3 15 -9
12 -12z m-164 -113 c23 -11 39 -22 37 -24 -4 -5 -151 30 -166 39 -8 5 -6 15 9
35 l21 28 29 -28 c16 -16 48 -38 70 -50z m1443 -119 c25 -12 78 -29 116 -39
39 -11 77 -24 85 -31 35 -29 4 -89 -59 -115 -53 -22 -115 -27 -222 -20 l-102
7 4 31 c4 26 -4 46 -40 102 -25 39 -46 73 -46 76 0 3 17 14 38 23 20 9 48 25
61 35 24 18 25 18 71 -15 26 -19 68 -43 94 -54z m227 -188 c-33 -46 -106 -79
-194 -86 -91 -8 -163 0 -171 19 -4 11 18 14 112 13 127 -2 181 12 232 59 34
32 46 29 21 -5z m-3506 -32 c8 -12 58 -35 139 -62 33 -11 97 -40 143 -64 61
-33 105 -48 170 -60 95 -17 156 -37 272 -91 41 -19 97 -40 125 -48 28 -7 94
-27 146 -43 157 -49 202 -60 275 -66 115 -11 147 -17 205 -40 49 -20 223 -126
217 -133 -4 -4 -78 24 -149 55 -62 28 -78 30 -78 11 0 -9 56 -35 175 -82 50
-19 73 -33 61 -35 -20 -4 -132 27 -206 58 -43 18 -60 18 -60 1 0 -9 2 -10 150
-65 74 -27 88 -35 63 -36 -37 0 -209 42 -242 59 -26 15 -47 5 -31 -14 6 -7 41
-25 78 -40 162 -66 143 -70 -63 -16 -51 14 -107 40 -181 86 -109 68 -107 68
-357 105 -172 25 -262 49 -402 105 -133 54 -183 67 -389 100 -88 14 -163 28
-168 31 -14 9 -9 122 8 166 32 85 57 128 75 128 10 0 21 -5 24 -10z m3122 -77
c98 -116 171 -176 285 -234 54 -27 60 -36 54 -76 -6 -44 -51 -88 -109 -107
-41 -14 -62 -15 -135 -6 -114 14 -128 18 -187 51 -154 87 -209 109 -295 119
-47 5 -104 15 -128 22 l-43 13 3 69 3 70 131 2 c106 1 142 5 195 24 63 22 120
57 149 92 8 10 18 18 22 18 4 0 28 -26 55 -57z m-419 -277 c64 -5 139 -23 158
-38 6 -5 58 -33 115 -63 74 -39 97 -55 78 -55 -14 0 -52 16 -85 36 -97 59
-110 64 -196 75 -86 12 -188 44 -188 59 0 5 12 5 28 0 15 -5 55 -11 90 -14z
m475 -173 c-7 -2 -21 -2 -30 0 -10 3 -4 5 12 5 17 0 24 -2 18 -5z"/>
<path d="M4091 2399 c-14 -39 -14 -49 -1 -49 13 0 42 58 35 70 -11 18 -23 10
-34 -21z"/>
<path d="M2320 1815 c-24 -39 -47 -152 -37 -178 13 -34 25 -15 29 46 2 38 12
79 26 105 12 23 22 47 22 52 0 21 -19 9 -40 -25z"/>
<path d="M821 1958 c-24 -25 -36 -76 -26 -107 10 -33 25 -24 25 15 0 20 9 51
20 70 24 39 11 55 -19 22z"/>
<path d="M875 1914 c-19 -46 -19 -74 0 -74 14 0 35 56 35 93 0 29 -19 19 -35
-19z"/>
<path d="M1192 1575 c-46 -20 -33 -33 27 -25 55 7 67 13 56 29 -9 15 -43 13
-83 -4z"/>
</g>
</svg>
