<?xml version="1.0" standalone="no"?>
<!DOCTYPE svg PUBLIC "-//W3C//DTD SVG 20010904//EN"
 "http://www.w3.org/TR/2001/REC-SVG-20010904/DTD/svg10.dtd">
<svg version="1.0" xmlns="http://www.w3.org/2000/svg"
 width="360.000000pt" height="360.000000pt" viewBox="0 0 360.000000 360.000000"
 preserveAspectRatio="xMidYMid meet">
<metadata>
Created by potrace 1.16, written by Peter Selinger 2001-2019
</metadata>
<g transform="translate(0.000000,360.000000) scale(0.100000,-0.100000)"
fill="#ffffff" stroke="none">
<path d="M1872 3288 c-8 -8 -12 -46 -12 -105 0 -68 -3 -93 -12 -93 -10 0 -9
-3 1 -9 10 -6 10 -10 1 -16 -8 -5 -6 -11 8 -21 26 -18 21 -62 -26 -209 -31
-98 -35 -125 -39 -250 -3 -117 -7 -146 -24 -178 -15 -27 -19 -49 -16 -75 3
-20 10 -73 17 -117 9 -62 9 -98 0 -160 -19 -129 -17 -220 8 -314 17 -64 20
-92 13 -112 -7 -19 -5 -52 4 -106 20 -108 18 -160 -5 -228 -11 -32 -20 -79
-20 -105 0 -60 -13 -96 -71 -197 -28 -48 -47 -94 -47 -110 1 -15 -11 -57 -26
-93 -27 -63 -94 -270 -117 -359 -12 -49 -58 -99 -121 -132 -45 -23 -51 -44
-10 -34 22 5 25 4 15 -6 -30 -30 -2 -40 30 -12 19 17 19 17 13 -4 -10 -32 10
-37 32 -6 19 26 20 27 26 5 11 -33 36 -28 36 8 0 19 5 30 14 30 8 0 21 3 30 6
11 4 16 1 16 -11 0 -27 25 -11 28 18 2 18 -3 29 -17 37 -12 6 -21 19 -21 30 0
49 111 313 165 391 19 28 35 57 35 65 0 8 9 14 20 14 11 0 20 5 20 10 0 6 6
10 14 10 8 0 13 -6 13 -13 -3 -33 16 -127 35 -169 17 -38 28 -49 62 -62 55
-21 88 -20 144 5 46 20 128 109 101 109 -7 0 -2 12 12 27 18 20 20 25 7 20
-22 -8 -23 6 -3 23 11 9 12 15 5 20 -13 8 -23 70 -11 70 5 0 19 -12 32 -26 13
-14 31 -33 40 -42 48 -48 249 -424 249 -465 0 -7 -13 -21 -30 -30 -23 -14 -30
-25 -30 -48 0 -33 12 -37 31 -10 11 15 19 17 37 10 17 -6 22 -16 22 -44 0 -43
18 -46 27 -5 7 38 14 38 35 0 16 -27 20 -29 38 -18 12 8 19 20 17 30 -4 14 -2
15 14 5 30 -19 36 3 8 27 -46 40 -87 105 -99 159 -15 62 -59 176 -99 255 -42
83 -91 227 -84 250 3 13 -10 40 -40 81 -47 64 -67 124 -67 206 0 25 -11 84
-25 132 -22 73 -26 107 -24 196 1 59 -3 113 -8 120 -7 8 -3 34 14 82 28 80 30
154 12 308 -9 74 -10 107 -1 130 8 23 8 60 1 132 -13 130 -13 131 -4 265 6
101 3 131 -19 249 -32 166 -33 201 -6 208 23 6 26 19 8 26 -8 3 -5 6 6 6 15 1
16 4 6 16 -8 9 -11 44 -8 107 l3 92 -29 10 c-25 10 -31 8 -52 -19 -13 -17 -33
-59 -44 -95 -11 -36 -29 -76 -40 -89 -26 -31 -25 -66 2 -85 32 -23 36 -120 9
-259 -12 -62 -21 -148 -21 -200 0 -92 0 -93 -30 -110 -16 -10 -30 -24 -30 -32
0 -12 -4 -12 -27 0 -31 16 -35 48 -21 165 6 50 5 109 -2 178 -16 139 -7 206
32 245 33 33 33 42 -1 122 -11 28 -23 66 -26 85 -12 77 -67 124 -103 88z m161
-1048 c2 -63 1 -106 -4 -95 -4 11 -8 67 -8 125 1 133 6 119 12 -30z m-138
-1310 c-3 -5 -12 -10 -18 -10 -7 0 -6 4 3 10 19 12 23 12 15 0z"/>
</g>
</svg>
