<?xml version="1.0" standalone="no"?>
<!DOCTYPE svg PUBLIC "-//W3C//DTD SVG 20010904//EN"
 "http://www.w3.org/TR/2001/REC-SVG-20010904/DTD/svg10.dtd">
<svg version="1.0" xmlns="http://www.w3.org/2000/svg"
 width="250.000000pt" height="211.000000pt" viewBox="0 0 250.000000 211.000000"
 preserveAspectRatio="xMidYMid meet">
<metadata>
Created by potrace 1.16, written by Peter Selinger 2001-2019
</metadata>
<g transform="translate(0.000000,211.000000) scale(0.100000,-0.100000)"
fill="#ffffff" stroke="none">
<path d="M719 2063 c-53 -40 -70 -61 -100 -119 -19 -39 -51 -91 -71 -115 -42
-52 -49 -78 -37 -123 10 -35 69 -96 93 -96 7 0 21 -9 30 -19 10 -11 32 -25 49
-32 51 -20 75 -47 102 -118 47 -123 74 -161 165 -231 50 -39 88 -76 92 -91 8
-31 48 -234 55 -279 3 -19 12 -44 19 -55 8 -11 14 -29 14 -41 0 -12 9 -33 20
-47 11 -14 20 -36 20 -49 0 -14 14 -43 32 -66 23 -30 32 -52 32 -84 1 -42 2
-43 38 -46 29 -2 37 -8 42 -27 9 -34 40 -48 90 -40 22 3 73 6 112 5 79 -1 136
17 153 48 9 17 23 20 99 23 76 4 94 8 129 31 33 22 49 26 77 21 25 -4 42 -1
54 10 10 9 53 20 104 26 87 10 133 26 157 54 6 8 37 25 67 37 64 26 84 56 84
125 0 25 5 45 10 45 6 0 19 15 30 32 15 25 20 51 20 107 0 72 -1 74 -38 111
-28 28 -57 44 -109 60 -85 26 -113 24 -129 -10 -7 -14 -18 -37 -25 -52 -10
-23 -19 -28 -46 -28 -19 0 -51 9 -73 20 -46 23 -95 25 -130 5 -14 -8 -43 -15
-65 -15 -26 0 -63 -13 -105 -36 -36 -19 -93 -46 -128 -59 l-63 -23 -9 24 c-14
37 -95 155 -133 194 -19 19 -42 58 -51 87 -13 39 -26 58 -52 74 -19 12 -42 32
-51 46 -9 14 -62 61 -117 106 -56 45 -133 113 -173 152 -91 89 -98 115 -60
225 14 41 28 89 31 106 6 39 -10 100 -37 138 -17 24 -25 27 -53 23 -19 -3 -36
-1 -39 4 -14 22 -65 7 -126 -38z m111 4 c0 -13 -30 -47 -42 -47 -5 0 -6 10 -3
21 5 16 3 20 -6 17 -8 -3 -14 -18 -14 -34 0 -33 -23 -94 -36 -94 -5 0 -22 -19
-39 -42 -30 -41 -39 -78 -20 -78 6 0 10 8 10 18 0 10 11 29 25 42 14 13 25 20
25 16 0 -23 -36 -68 -84 -105 -54 -40 -74 -75 -62 -106 5 -13 2 -14 -15 -5
-24 13 -42 55 -34 80 3 9 24 41 46 71 22 30 53 81 68 114 22 49 40 70 90 108
57 42 91 52 91 24z m94 -56 c-1 -18 3 -29 10 -28 22 4 17 -50 -14 -132 -16
-45 -30 -99 -30 -119 1 -68 98 -177 272 -306 46 -34 87 -73 100 -96 13 -22 30
-40 39 -40 9 0 26 -8 37 -17 26 -22 40 -73 21 -73 -7 0 10 -21 39 -47 105 -97
212 -317 182 -374 -30 -55 -136 -76 -219 -43 -46 18 -52 31 -76 169 -10 55
-22 116 -26 135 -14 55 -62 133 -89 146 -150 68 -160 77 -210 172 -22 42 -57
100 -78 127 -34 44 -47 53 -121 80 -91 33 -127 59 -137 99 -9 39 2 69 34 88
60 35 90 78 106 146 13 56 22 72 67 118 49 50 55 53 74 40 13 -10 20 -24 19
-45z m-42 -578 c20 -32 45 -78 58 -102 25 -51 94 -121 142 -144 18 -9 28 -17
21 -17 -9 0 -8 -7 2 -27 8 -16 16 -36 19 -45 3 -10 10 -18 16 -18 16 0 12 46
-5 60 -19 15 -19 30 -2 30 32 0 107 -124 107 -177 1 -15 7 -55 15 -88 22 -92
20 -105 -14 -105 -45 0 -76 15 -100 49 -26 36 -61 169 -61 233 0 57 -24 89
-127 165 -46 34 -80 68 -93 93 -18 34 -70 166 -70 176 0 3 13 -2 28 -10 16 -8
44 -41 64 -73z m1460 -335 c35 -11 73 -27 84 -35 30 -19 48 -68 48 -130 0 -42
-5 -58 -22 -76 -22 -21 -24 -21 -33 -4 -6 10 -32 27 -57 38 -26 11 -65 37 -87
58 -22 21 -53 44 -70 50 -30 11 -30 11 -2 7 15 -2 27 1 27 5 0 5 -4 9 -9 9 -8
0 11 70 25 92 8 13 29 10 96 -14z m-264 -66 c9 -6 6 -12 -13 -20 -33 -15 -34
-35 -1 -22 30 11 130 -3 155 -22 9 -7 35 -29 58 -50 23 -20 57 -44 76 -52 44
-18 67 -51 67 -97 0 -45 -41 -99 -74 -99 -12 0 -33 -12 -47 -26 -13 -14 -37
-31 -54 -38 -45 -19 -162 -39 -188 -32 -16 4 -26 -1 -35 -14 -9 -15 -23 -20
-58 -20 -30 0 -59 -8 -81 -21 -24 -15 -55 -22 -101 -25 -37 -2 -59 -1 -49 2 9
3 17 10 17 16 0 16 -63 1 -77 -19 -52 -69 -59 -73 -137 -73 -40 0 -95 -3 -122
-7 l-48 -6 20 21 c12 12 66 40 122 62 56 22 126 57 155 79 28 21 85 55 124 75
65 32 80 36 154 36 67 0 79 2 70 13 -17 21 74 67 131 67 46 0 71 17 97 67 6
12 20 25 31 28 11 4 18 11 14 16 -7 11 -46 1 -55 -14 -12 -18 -57 3 -77 36
-17 30 -99 83 -110 72 -7 -7 9 -25 37 -39 15 -8 49 -36 75 -62 43 -42 46 -48
32 -62 -18 -18 -115 -32 -145 -20 -12 4 -21 14 -21 23 0 19 14 19 30 0 13 -15
60 -21 60 -7 0 4 -10 12 -22 17 -13 6 -24 20 -26 33 -4 26 -19 29 -25 5 -3
-15 -6 -13 -17 10 -13 27 -30 36 -30 16 0 -6 5 -19 11 -31 13 -25 5 -35 -16
-18 -29 24 -16 -13 15 -44 l30 -29 -35 -24 c-23 -16 -48 -23 -79 -23 -45 0
-46 1 -47 33 l-1 32 -15 -36 c-8 -20 -26 -42 -40 -48 -14 -7 -26 -10 -27 -9 0
2 -13 26 -27 55 l-26 51 24 11 c13 6 31 11 40 11 12 0 14 3 6 11 -7 7 -22 8
-46 1 -31 -9 -38 -7 -54 10 -10 12 -35 33 -55 48 l-38 28 45 12 c24 7 56 9 70
6 23 -6 26 -4 20 14 -5 17 0 23 29 35 19 8 45 15 56 15 12 0 18 4 15 10 -9 14
37 22 65 11 25 -10 25 -10 2 -10 -12 -1 -25 -8 -28 -16 -4 -10 -15 -12 -34 -9
-23 5 -32 1 -51 -25 -12 -17 -37 -35 -55 -41 -18 -6 -38 -18 -46 -27 -12 -15
-10 -16 17 -9 17 4 37 9 45 11 8 3 34 -13 58 -34 55 -50 88 -59 115 -33 12 13
16 25 11 33 -4 7 -8 24 -9 36 0 13 -14 34 -30 48 -30 23 -30 24 -10 39 31 24
55 20 55 -8 0 -13 7 -29 15 -36 8 -7 12 -16 9 -21 -3 -5 -1 -9 5 -9 19 0 22
21 6 46 -13 19 -14 29 -5 39 14 17 5 35 -18 35 -15 0 -15 2 -2 10 18 12 100
13 118 2z m-187 -121 c12 -10 23 -32 25 -49 3 -28 1 -32 -22 -32 -14 0 -35 11
-48 25 -13 14 -31 25 -40 25 -25 0 -19 25 15 61 l32 34 8 -23 c5 -13 19 -32
30 -41z m-202 -116 c24 -33 28 -45 17 -45 -8 0 -34 27 -57 61 -34 50 -37 58
-17 45 14 -9 39 -36 57 -61z m-468 -25 c32 0 40 -21 32 -81 -4 -30 -3 -40 5
-35 7 4 12 14 12 22 0 8 5 14 10 14 6 0 10 -7 10 -15 0 -8 5 -15 10 -15 16 0
12 38 -7 68 l-17 27 25 -21 c82 -71 251 -53 301 33 l21 34 24 -36 c13 -19 30
-35 38 -35 19 0 19 -9 1 -29 -18 -20 -31 -71 -19 -71 6 0 15 12 22 26 6 15 14
24 18 21 10 -11 -26 -56 -68 -86 -46 -34 -176 -90 -225 -98 -22 -4 -47 2 -76
16 -54 26 -138 120 -138 154 0 13 -9 32 -19 41 -10 10 -21 35 -23 56 -3 36 -2
37 17 24 11 -8 31 -14 46 -14z m524 -107 c-6 -15 -9 -14 -16 11 -4 16 -5 34
-2 40 10 16 26 -31 18 -51z m-446 -180 c2 -2 -5 -3 -17 -3 -14 0 -22 6 -22 16
0 14 3 15 18 3 9 -7 19 -15 21 -16z m51 -53 c0 -5 -2 -10 -4 -10 -3 0 -8 5
-11 10 -3 6 -1 10 4 10 6 0 11 -4 11 -10z"/>
<path d="M877 1916 c-15 -27 -21 -48 -16 -52 13 -8 36 23 44 59 11 45 -1 42
-28 -7z"/>
<path d="M715 1710 c-20 -21 -35 -28 -48 -24 -14 4 -18 2 -15 -7 9 -26 40 -21
74 12 19 18 34 37 34 41 0 16 -17 8 -45 -22z"/>
<path d="M766 1708 c-9 -12 -16 -30 -16 -39 0 -20 31 -49 53 -49 24 0 21 17
-4 31 -17 9 -20 17 -16 45 7 40 4 42 -17 12z"/>
<path d="M1054 1407 c48 -48 78 -87 86 -113 16 -51 26 -61 35 -35 13 41 -48
126 -136 194 -66 50 -59 28 15 -46z"/>
<path d="M1290 1251 c0 -40 9 -61 27 -61 11 0 13 5 8 18 -4 9 -10 27 -12 40
-8 34 -23 37 -23 3z"/>
<path d="M1230 1189 c0 -9 9 -24 20 -34 11 -10 20 -26 20 -36 0 -27 11 -50 21
-43 20 12 8 56 -26 92 -23 25 -35 32 -35 21z"/>
<path d="M1350 1094 c6 -14 10 -56 10 -94 0 -86 16 -163 40 -192 27 -34 33
-18 10 27 -16 30 -20 59 -20 127 0 55 -6 102 -14 123 -18 41 -41 49 -26 9z"/>
<path d="M2277 1028 c3 -75 19 -108 55 -108 23 0 23 8 -3 28 -13 11 -22 33
-25 62 -8 67 -13 90 -22 90 -5 0 -7 -32 -5 -72z"/>
<path d="M2220 720 c0 -5 11 -10 25 -10 23 0 22 -2 -19 -45 -25 -25 -49 -45
-55 -45 -6 0 -11 -4 -11 -10 0 -14 54 -12 68 2 7 7 12 20 12 30 0 20 47 46 73
41 31 -8 18 18 -18 33 -40 16 -75 18 -75 4z"/>
<path d="M2050 635 c-18 -19 -31 -38 -27 -41 4 -4 18 5 33 19 16 16 42 28 70
33 56 8 57 24 1 24 -36 0 -49 -6 -77 -35z"/>
<path d="M1870 614 c-36 -31 -33 -43 5 -18 22 15 32 16 59 6 63 -23 79 -7 21
21 -46 22 -48 22 -85 -9z"/>
</g>
</svg>
