<?xml version="1.0" standalone="no"?>
<!DOCTYPE svg PUBLIC "-//W3C//DTD SVG 20010904//EN"
 "http://www.w3.org/TR/2001/REC-SVG-20010904/DTD/svg10.dtd">
<svg version="1.0" xmlns="http://www.w3.org/2000/svg"
 width="508.000000pt" height="768.000000pt" viewBox="0 0 508.000000 768.000000"
 preserveAspectRatio="xMidYMid meet">
<metadata>
Created by potrace 1.16, written by Peter Selinger 2001-2019
</metadata>
<g transform="translate(0.000000,768.000000) scale(0.100000,-0.100000)"
fill="#ffffff" stroke="none">
<path d="M2410 6553 c-63 -33 -121 -102 -140 -166 -6 -23 -25 -73 -42 -112
-26 -62 -31 -86 -36 -204 l-7 -135 -374 -62 -374 -63 -46 39 c-94 77 -135 84
-208 36 -21 -14 -67 -33 -103 -42 -103 -26 -153 -54 -163 -90 l-9 -31 -310
-52 c-171 -29 -325 -59 -342 -67 -30 -14 -29 -14 34 -10 54 4 577 85 645 100
13 3 26 -4 38 -20 11 -14 17 -27 14 -30 -2 -2 -109 -22 -238 -45 -344 -59
-513 -90 -518 -95 -3 -2 0 -9 5 -14 6 -6 147 14 384 54 206 35 378 62 381 60
4 -2 12 -32 19 -66 6 -35 18 -70 26 -78 47 -54 78 -179 98 -405 24 -263 75
-421 157 -487 22 -17 53 -54 69 -80 17 -27 41 -53 55 -58 41 -16 108 3 150 40
11 10 45 28 75 40 74 29 206 110 254 156 21 21 61 68 88 106 27 37 53 68 58
68 5 0 12 -10 16 -22 4 -13 20 -41 35 -63 16 -22 38 -74 50 -115 11 -41 35
-106 52 -145 30 -66 31 -77 31 -190 0 -115 -1 -123 -31 -180 -34 -67 -39 -90
-53 -280 -9 -117 -15 -145 -65 -290 -66 -194 -88 -286 -80 -335 3 -20 -1 -97
-9 -171 -13 -110 -14 -163 -5 -294 31 -479 26 -448 80 -516 38 -48 102 -79
163 -79 34 0 69 -11 129 -39 117 -57 256 -83 413 -79 l122 3 5 -55 c3 -30 13
-80 22 -110 9 -30 19 -96 22 -146 5 -82 3 -97 -21 -157 -20 -51 -26 -82 -26
-145 0 -85 22 -234 41 -276 14 -30 21 -32 111 -41 50 -5 72 -3 90 8 13 8 39
18 58 21 19 4 56 22 83 41 l47 35 0 63 c0 100 12 129 65 155 24 12 62 37 83
57 22 19 44 35 50 35 27 0 92 168 92 240 0 26 -9 77 -20 112 -26 83 -25 112 6
226 21 75 25 111 21 160 -6 74 -25 106 -83 140 -35 21 -48 23 -121 18 l-81 -6
-17 48 c-24 65 -28 197 -18 534 6 203 13 290 21 301 11 12 10 27 -3 76 -24 93
-45 250 -55 405 -11 174 -36 277 -94 376 -26 46 -46 94 -50 125 -4 28 -14 60
-22 72 -22 35 -17 88 17 171 17 42 35 113 41 158 10 77 13 84 67 152 76 95
121 187 121 246 0 26 5 46 11 46 6 0 30 -14 55 -31 86 -59 119 -69 239 -69
105 0 128 -4 220 -31 35 -10 46 -9 78 6 32 15 45 31 83 110 92 190 95 340 13
640 -32 117 -50 316 -31 344 7 9 141 37 403 82 217 37 403 72 414 78 48 23
-89 8 -433 -49 -200 -33 -368 -60 -373 -60 -6 0 -9 14 -7 32 l3 32 370 62
c204 34 385 66 404 71 40 10 58 39 20 30 -13 -2 -198 -33 -411 -68 l-387 -63
-21 27 c-35 45 -105 80 -143 73 -17 -4 -59 -11 -92 -15 -106 -16 -197 -39
-206 -53 -8 -11 -18 -42 -34 -104 -4 -15 -620 -123 -632 -110 -4 3 -1 18 6 33
23 50 32 134 20 198 -19 110 -87 192 -206 248 -53 24 -82 31 -157 34 -86 5
-94 3 -146 -24z m291 -40 c82 -38 141 -90 170 -149 18 -39 21 -58 17 -137 -5
-111 -23 -151 -98 -220 -29 -26 -50 -50 -47 -54 4 -3 13 0 22 7 13 11 15 8 15
-22 0 -18 10 -53 23 -77 19 -39 34 -50 128 -99 l106 -54 70 16 c140 31 221 -4
320 -139 18 -24 25 -28 39 -19 23 14 123 0 179 -25 46 -20 79 -51 102 -95 l15
-29 -43 7 c-24 4 -60 9 -79 12 -32 6 -34 5 -20 -10 29 -30 179 -42 195 -15 3
4 -8 21 -24 37 -44 44 -49 90 -17 162 l27 60 -25 102 c-16 67 -21 107 -15 114
14 17 -31 50 -78 59 -53 10 -70 21 -89 57 -19 36 -8 49 41 47 54 -2 55 -1 55
50 0 39 -6 56 -25 78 -18 20 -27 25 -33 16 -4 -7 -22 -16 -40 -19 -28 -6 -32
-4 -32 14 0 28 19 75 33 84 18 12 79 10 72 -2 -8 -13 1 -13 43 2 31 12 35 11
53 -12 18 -24 19 -24 19 -4 0 24 -15 40 -45 47 -11 2 -2 3 20 1 23 -2 49 -6
58 -10 11 -4 17 -1 17 9 0 38 87 22 137 -25 22 -21 23 -26 23 -230 l0 -208 37
-137 c35 -128 38 -148 37 -273 0 -143 -6 -168 -67 -314 -35 -83 -76 -102 -151
-71 -20 8 -70 20 -113 26 -42 6 -94 18 -115 26 -47 19 -62 9 -28 -17 l25 -20
-30 0 c-78 0 -220 101 -259 184 -30 64 -32 82 -9 90 13 5 14 9 4 19 -17 17
-55 -29 -47 -57 65 -230 63 -243 -67 -415 -71 -93 -72 -94 -78 -170 -4 -44
-20 -116 -38 -168 -21 -62 -31 -109 -31 -151 0 -58 -1 -61 -39 -91 -53 -42
-150 -86 -246 -112 -117 -32 -327 -32 -406 -1 -81 32 -89 44 -104 165 -9 65
-25 133 -45 181 -30 76 -37 116 -22 116 4 0 26 -19 49 -42 28 -30 46 -60 57
-98 18 -64 74 -182 75 -160 1 9 -17 66 -38 128 -42 118 -63 151 -156 242 -61
60 -92 103 -105 150 -10 36 -4 37 50 9 56 -29 153 -23 228 15 29 15 50 31 47
36 -6 10 -29 3 -80 -24 -70 -37 -131 -30 -194 23 l-34 28 23 69 c12 38 27 75
33 82 6 8 44 37 85 65 84 59 81 72 -6 28 -33 -17 -92 -39 -130 -50 -84 -23
-117 -40 -105 -52 5 -5 26 -2 51 8 23 9 45 13 49 9 13 -13 -17 -101 -69 -206
-43 -86 -68 -119 -133 -186 -79 -80 -158 -144 -178 -144 -6 0 4 15 22 34 50
52 33 62 -24 15 -28 -23 -68 -53 -90 -67 -22 -14 -59 -42 -82 -63 -28 -26 -52
-39 -70 -39 -36 0 -41 4 -87 68 -21 28 -47 58 -57 66 -40 27 -70 83 -104 189
-30 90 -38 137 -50 279 -17 190 -18 196 -47 287 -16 49 -18 65 -8 71 15 9 5
30 -14 30 -23 0 -44 34 -61 100 -24 93 -40 126 -76 159 -32 30 -36 57 -8 74
27 17 65 0 119 -53 49 -48 51 -49 48 -22 -2 20 -16 35 -55 61 -58 37 -60 51
-7 51 42 0 154 -55 154 -75 0 -8 5 -15 10 -15 6 0 10 4 10 9 0 27 -18 45 -69
69 l-56 27 55 3 c73 5 130 -12 130 -38 0 -11 5 -20 10 -20 6 0 10 11 10 25 0
28 -20 40 -82 50 -64 10 -42 35 32 35 31 0 47 -8 87 -45 49 -43 50 -46 57
-116 7 -80 17 -107 26 -69 10 41 35 31 38 -16 3 -39 1 -42 -53 -78 -33 -22
-62 -50 -72 -70 -15 -33 -15 -38 10 -118 21 -66 38 -98 86 -158 66 -82 77
-113 67 -196 -3 -30 -4 -54 -1 -54 2 0 18 26 34 58 47 92 87 139 141 167 27
14 54 25 60 25 5 0 10 -17 10 -37 1 -60 19 -17 35 81 17 109 34 142 105 211
70 66 121 90 212 100 60 6 74 12 125 52 32 25 85 58 118 73 64 30 93 56 119
108 22 43 5 41 -29 -4 -31 -40 -37 -37 -56 29 -11 40 -27 51 -92 62 -21 3 -47
15 -59 27 -19 19 -20 29 -16 157 4 131 5 139 40 216 20 44 40 92 43 107 10 39
68 102 117 127 36 19 56 22 128 19 70 -3 97 -10 151 -35z m970 -395 c4 -16 4
-28 1 -28 -4 0 -200 -34 -437 -74 -236 -40 -432 -72 -434 -70 -14 12 23 54 56
65 46 15 760 138 787 136 12 -1 22 -13 27 -29z m-98 -135 c20 -41 30 -50 68
-61 24 -7 51 -17 59 -21 8 -5 27 -53 43 -112 l27 -104 -27 -60 c-15 -33 -29
-62 -30 -64 -1 -2 -27 4 -58 14 -30 9 -89 22 -129 28 -71 12 -76 14 -109 57
-68 89 -173 122 -307 97 -82 -16 -92 -15 -134 20 -16 13 -50 35 -76 48 -45 23
-96 72 -86 83 6 5 672 120 708 121 23 1 31 -7 51 -46z m-1347 -98 c16 -8 38
-15 49 -16 49 -2 -51 -22 -415 -84 -212 -36 -395 -68 -407 -70 -20 -5 -23 -1
-23 24 0 16 5 33 11 36 13 9 682 123 725 124 18 1 45 -6 60 -14z m132 -68 c6
-7 15 -25 21 -40 10 -25 8 -28 -25 -42 -19 -8 -65 -35 -102 -59 -51 -35 -88
-50 -155 -66 -106 -24 -135 -38 -206 -98 -69 -59 -108 -120 -122 -194 -11 -57
-12 -59 -70 -90 -33 -17 -77 -50 -99 -74 l-40 -44 -10 24 c-5 14 -32 53 -61
88 -61 75 -119 189 -119 235 0 25 8 38 42 65 87 69 98 84 98 127 0 29 5 41 18
45 16 5 688 119 757 129 56 8 63 7 73 -6z m732 -1534 c0 -32 -7 -44 -51 -85
-29 -27 -50 -51 -47 -54 3 -2 28 11 57 30 l51 35 24 -32 c66 -89 84 -160 126
-522 17 -137 33 -268 36 -291 6 -40 6 -41 -57 -88 -118 -87 -248 -136 -364
-136 -34 0 -66 5 -73 12 -8 8 -12 52 -12 131 l0 120 70 73 c63 67 92 116 77
131 -3 3 -34 -23 -69 -58 -35 -35 -77 -76 -94 -90 -35 -28 -38 -43 -50 -226
-5 -80 -10 -105 -24 -118 -33 -30 -129 -48 -261 -49 l-125 -1 -75 37 c-40 21
-102 62 -136 93 l-62 55 20 71 c11 39 42 141 70 227 49 150 51 163 57 297 l5
140 28 -90 c28 -89 28 -96 2 -127 -10 -11 -16 -46 -18 -101 -3 -54 -12 -106
-25 -143 -56 -151 -70 -198 -70 -230 0 -19 4 -34 9 -34 9 0 13 14 26 92 3 21
17 63 32 95 37 85 43 109 52 204 6 64 13 94 29 117 28 38 28 42 -4 121 -29 70
-28 71 11 165 15 35 -19 12 -42 -30 -19 -32 -23 -35 -23 -16 0 27 24 87 39 96
5 4 29 -7 52 -24 91 -65 259 -87 398 -51 46 12 93 27 105 34 20 10 20 11 2 15
-10 2 -46 -4 -79 -13 -149 -42 -290 -35 -382 20 -51 29 -65 50 -65 96 l0 32
23 -21 c52 -49 208 -78 336 -62 160 20 384 104 440 164 14 14 26 26 28 26 2 0
3 -17 3 -37z m180 -1431 c3 -207 5 -378 4 -379 0 -2 -15 8 -33 21 -18 13 -48
27 -67 31 -41 7 -133 -10 -160 -30 -30 -21 -8 -29 30 -11 77 37 175 12 216
-56 28 -47 14 -58 -78 -58 -101 0 -195 17 -235 44 -59 39 -90 140 -77 246 1 8
-6 35 -15 60 -20 53 -80 286 -90 347 l-6 41 78 -5 c53 -3 100 0 146 11 75 17
202 73 244 106 14 11 29 18 32 14 3 -3 8 -175 11 -382z m-1056 210 c44 -22 66
-27 161 -30 61 -2 134 0 162 6 29 5 55 7 58 4 2 -3 -12 -36 -32 -74 -26 -51
-56 -88 -111 -136 -105 -95 -128 -145 -28 -62 26 22 51 40 55 40 4 0 2 -28 -5
-62 -8 -35 -14 -77 -14 -94 0 -23 -10 -41 -37 -68 -42 -40 -42 -40 44 -26 131
21 256 -20 390 -127 88 -72 144 -93 254 -100 72 -5 102 -1 193 22 142 36 196
32 242 -17 47 -51 51 -96 20 -209 -33 -118 -32 -149 1 -281 l28 -107 -25 -72
c-27 -79 -53 -119 -76 -119 -9 0 -27 -14 -41 -30 -14 -17 -42 -39 -63 -50
l-37 -19 -6 52 c-3 29 -19 88 -37 132 l-31 80 12 111 c7 61 10 131 7 155 -18
155 -157 222 -275 132 -26 -20 -52 -27 -120 -35 -225 -26 -449 23 -608 131
-35 25 -57 27 -49 6 5 -12 -3 -15 -40 -15 -37 0 -52 6 -81 31 -59 53 -67 76
-76 253 -4 89 -14 220 -20 291 -12 132 -1 311 21 371 l10 25 52 -41 c28 -23
75 -53 102 -68z m516 -3 c0 -12 21 -102 46 -201 36 -143 62 -289 64 -360 0 -4
-27 10 -60 31 -62 40 -121 58 -222 68 l-58 6 0 61 c1 91 14 141 51 199 18 29
52 86 75 127 53 92 104 126 104 69z m470 -964 c54 -28 62 -60 61 -237 -2 -144
1 -166 24 -239 29 -93 33 -188 10 -263 -10 -34 -12 -53 -5 -60 20 -20 9 -52
-30 -83 -21 -18 -47 -33 -58 -33 -11 0 -39 -9 -63 -19 -24 -11 -47 -17 -51
-15 -5 3 -6 21 -2 40 7 37 -15 126 -29 117 -4 -3 -5 -29 -2 -58 6 -46 4 -56
-14 -74 -48 -48 -78 -13 -97 111 -8 51 -14 122 -14 158 0 68 1 70 69 192 18
32 31 68 29 80 -3 22 -4 22 -20 -7 l-17 -30 -1 31 c0 57 -32 219 -50 254 -13
26 -15 42 -8 62 11 32 43 49 35 18 -7 -28 -2 -26 52 19 25 21 53 41 61 44 29
11 91 7 120 -8z"/>
<path d="M2467 6233 c-14 -13 -6 -20 17 -16 19 4 25 -1 34 -25 11 -33 2 -93
-19 -118 -8 -10 -24 -14 -45 -12 -31 4 -34 1 -41 -32 -7 -28 -17 -39 -50 -55
-43 -21 -84 -54 -53 -42 8 3 32 11 52 18 44 14 68 38 71 68 1 17 8 21 34 21
61 0 97 72 73 144 -14 43 -53 69 -73 49z"/>
<path d="M3784 6118 c4 -24 12 -47 18 -53 8 -7 9 0 4 24 -3 18 -6 42 -6 52 0
11 -5 19 -11 19 -8 0 -9 -14 -5 -42z"/>
<path d="M2806 5711 c-19 -21 -27 -70 -11 -71 6 0 10 8 11 18 1 10 7 28 13 41
16 29 9 36 -13 12z"/>
<path d="M3153 5703 c-14 -5 -18 -33 -5 -33 4 0 13 5 19 11 12 12 74 8 106 -5
10 -5 17 -4 17 3 0 23 -97 41 -137 24z"/>
<path d="M2545 5680 c-3 -5 6 -12 20 -15 14 -3 36 -7 50 -10 26 -6 50 -37 107
-144 47 -86 49 -56 4 42 -31 67 -51 96 -72 108 -35 20 -101 31 -109 19z"/>
<path d="M3100 5572 c0 -58 -1 -59 -50 -101 -28 -24 -50 -51 -50 -62 0 -24 17
-25 24 -1 3 9 22 28 42 42 51 34 61 56 56 123 -5 75 -22 74 -22 -1z"/>
<path d="M3950 5530 c0 -26 -9 -62 -21 -84 -20 -39 -20 -54 1 -41 16 10 50 85
50 111 0 11 -7 29 -15 40 -13 18 -14 16 -15 -26z"/>
<path d="M2170 5513 c0 -5 15 -16 33 -24 17 -8 38 -27 46 -43 l13 -29 75 7 74
7 37 -41 c29 -31 40 -38 52 -30 13 8 13 10 -2 10 -10 0 -24 12 -32 28 -8 15
-24 36 -35 46 -20 18 -27 19 -79 8 l-56 -12 -36 34 c-34 34 -90 58 -90 39z"/>
<path d="M2063 5465 c-34 -14 -73 -67 -73 -97 0 -31 16 -19 33 23 13 32 24 43
56 56 23 9 41 20 41 25 0 12 -20 9 -57 -7z"/>
<path d="M3396 5424 c-22 -20 -35 -24 -58 -18 -23 5 -29 3 -26 -7 11 -34 112
-2 126 39 6 19 -10 14 -42 -14z"/>
<path d="M2806 5373 c34 -76 40 -156 20 -268 -22 -126 -20 -205 5 -205 5 0 9
30 9 68 0 37 7 108 16 157 19 109 14 160 -27 243 -38 78 -58 82 -23 5z"/>
<path d="M3105 5420 c-3 -5 3 -10 15 -10 14 0 30 -16 51 -50 37 -60 71 -71 37
-12 -41 72 -84 102 -103 72z"/>
<path d="M2540 5361 c0 -5 13 -11 30 -14 28 -6 29 -8 32 -73 2 -43 8 -69 16
-72 7 -2 10 2 6 12 -4 9 -1 36 5 60 6 25 8 51 5 59 -10 26 -94 52 -94 28z"/>
<path d="M2980 5348 c0 -2 7 -21 15 -43 8 -22 14 -76 15 -121 0 -67 -4 -89
-25 -130 -14 -27 -31 -82 -37 -121 -10 -60 -18 -80 -50 -119 -37 -45 -48 -74
-28 -74 6 0 10 4 10 10 0 5 18 28 39 50 41 42 45 55 56 152 4 33 14 67 26 82
29 36 40 115 29 195 -11 79 -25 121 -40 121 -5 0 -10 -1 -10 -2z"/>
<path d="M3603 5323 c-7 -2 -13 -15 -13 -28 0 -39 -17 -72 -40 -78 -12 -3 -19
-10 -16 -15 16 -27 86 29 86 69 0 14 7 19 25 19 19 0 50 -24 113 -84 48 -46
94 -85 102 -87 26 -5 70 11 70 26 0 17 -16 20 -25 5 -17 -27 -52 -5 -139 85
-77 80 -96 95 -121 94 -17 0 -36 -3 -42 -6z"/>
<path d="M2480 5285 c0 -2 13 -19 29 -37 16 -18 37 -59 47 -91 17 -56 17 -60
1 -89 -16 -28 -16 -29 0 -26 10 2 24 15 31 30 10 22 10 33 -2 65 -8 21 -17 50
-20 65 -7 32 -53 88 -72 88 -8 0 -14 -2 -14 -5z"/>
<path d="M1313 5090 c6 -108 39 -180 83 -180 11 0 1 25 -21 51 -28 34 -45 87
-45 144 0 22 -5 47 -11 55 -8 11 -9 -9 -6 -70z"/>
<path d="M3253 5113 c-20 -48 -27 -53 -89 -53 -38 0 -55 5 -69 20 -16 18 -45
28 -45 16 0 -3 11 -16 24 -30 21 -23 31 -26 98 -26 80 0 91 6 100 50 3 14 9
33 13 43 4 10 3 17 -4 17 -7 0 -19 -17 -28 -37z"/>
<path d="M2234 5091 c46 -88 189 -151 269 -118 34 15 54 34 44 43 -3 3 -19 -2
-36 -10 -33 -18 -87 -21 -96 -7 -3 5 -29 17 -58 25 -38 12 -61 26 -85 56 -38
46 -59 53 -38 11z"/>
<path d="M1684 5059 c-45 -49 -105 -89 -131 -89 -12 0 -23 -4 -23 -10 0 -44
167 49 201 111 16 31 -13 23 -47 -12z"/>
<path d="M2540 4939 c0 -12 31 -51 79 -99 44 -43 84 -88 91 -100 9 -16 15 -19
23 -11 17 17 -8 53 -66 97 -28 21 -66 60 -85 86 -18 27 -36 48 -38 48 -2 0 -4
-9 -4 -21z"/>
<path d="M1940 4905 c-25 -30 -133 -95 -157 -95 -23 0 -25 3 -19 30 5 27 3 30
-20 30 -33 0 -53 -11 -146 -82 -70 -54 -92 -78 -70 -78 10 0 77 45 128 87 52
42 74 43 74 4 0 -40 9 -43 69 -26 65 20 206 145 162 145 -5 0 -14 -7 -21 -15z"/>
<path d="M2418 4789 c-42 -42 -45 -49 -22 -49 20 0 74 54 74 74 0 23 -10 18
-52 -25z"/>
<path d="M2306 4721 c-4 -6 2 -15 13 -21 11 -5 28 -24 38 -40 18 -31 33 -39
33 -17 -1 27 -74 95 -84 78z"/>
<path d="M2930 4657 c0 -18 65 -77 85 -77 8 0 15 7 15 15 0 8 -7 15 -15 15 -8
0 -30 14 -50 31 -24 21 -35 26 -35 16z"/>
<path d="M2622 4575 c-11 -22 -35 -60 -51 -85 -29 -42 -41 -90 -23 -90 4 0 15
17 24 38 10 20 32 63 49 94 17 31 29 62 27 70 -3 7 -14 -4 -26 -27z"/>
<path d="M2797 4593 c-7 -12 -16 -68 -26 -168 -10 -94 -4 -166 15 -172 8 -3
10 18 6 68 -3 39 1 116 8 171 11 89 10 124 -3 101z"/>
<path d="M3010 4118 c-140 -85 -223 -114 -377 -131 -57 -7 -103 -16 -103 -22
1 -16 144 -6 229 16 80 20 255 102 305 142 50 40 14 37 -54 -5z"/>
<path d="M2420 3804 c0 -24 124 -144 149 -144 31 0 25 14 -19 45 -22 15 -58
47 -80 71 -45 48 -50 52 -50 28z"/>
<path d="M3149 2624 c-11 -14 -26 -15 -84 -10 -62 5 -68 4 -51 -9 10 -8 39
-17 64 -21 51 -8 94 9 100 39 4 22 -11 22 -29 1z"/>
<path d="M2262 2685 c-25 -55 -8 -175 25 -175 10 0 11 7 6 28 -5 15 -8 60 -8
100 0 39 -2 72 -6 72 -3 0 -11 -11 -17 -25z"/>
<path d="M2460 2376 c0 -41 128 -96 225 -96 70 0 95 6 95 24 0 8 -28 10 -94 8
-91 -4 -96 -3 -138 26 -70 47 -88 55 -88 38z"/>
<path d="M3325 2288 c-16 -6 -36 -12 -43 -14 -28 -8 1 -26 32 -19 17 3 45 7
61 8 27 2 30 -1 33 -31 2 -20 8 -32 15 -29 19 6 20 46 3 73 -18 26 -48 30
-101 12z"/>
<path d="M3451 1656 c-15 -18 -19 -68 -6 -73 12 -4 36 75 25 82 -4 3 -13 -2
-19 -9z"/>
<path d="M3106 1313 c-14 -15 -3 -21 49 -27 52 -6 95 4 95 22 0 9 -135 13
-144 5z"/>
</g>
</svg>
