<?xml version="1.0" standalone="no"?>
<!DOCTYPE svg PUBLIC "-//W3C//DTD SVG 20010904//EN"
 "http://www.w3.org/TR/2001/REC-SVG-20010904/DTD/svg10.dtd">
<svg version="1.0" xmlns="http://www.w3.org/2000/svg"
 width="301.000000pt" height="167.000000pt" viewBox="0 0 301.000000 167.000000"
 preserveAspectRatio="xMidYMid meet">
<metadata>
Created by potrace 1.16, written by Peter Selinger 2001-2019
</metadata>
<g transform="translate(0.000000,167.000000) scale(0.100000,-0.100000)"
fill="#ffffff" stroke="none">
<path d="M2524 1539 c-22 -18 -64 -43 -94 -57 -49 -24 -67 -26 -175 -27 -131
0 -140 -3 -250 -85 l-40 -30 -165 10 c-91 6 -192 17 -225 24 -94 23 -138 26
-180 15 -51 -14 -162 -85 -170 -109 -10 -30 -82 -53 -190 -60 -55 -3 -121 -13
-147 -20 -51 -15 -68 -10 -48 14 13 17 16 71 5 107 -11 34 -64 99 -81 99 -30
0 -151 -44 -181 -67 -19 -14 -44 -49 -63 -91 -17 -37 -46 -96 -63 -132 l-32
-65 -57 -6 c-63 -7 -79 -16 -155 -86 -47 -43 -53 -54 -59 -98 -6 -48 -4 -52
20 -63 14 -6 26 -18 26 -26 0 -24 100 -126 154 -157 77 -44 124 -37 144 21 6
17 17 32 24 34 103 27 109 28 134 1 13 -14 30 -25 39 -25 9 0 35 -20 57 -45
65 -71 145 -85 201 -35 19 17 41 30 48 30 19 0 62 -121 62 -172 0 -49 -10 -58
-64 -64 -24 -3 -54 -7 -67 -10 -29 -6 -92 -63 -138 -125 -33 -45 -35 -52 -25
-77 9 -22 22 -31 59 -39 26 -6 56 -14 68 -18 15 -5 34 4 72 34 30 24 70 45 97
51 113 25 139 50 150 143 3 32 15 88 26 125 36 119 40 152 28 215 l-10 60 52
53 c71 72 120 88 238 79 70 -5 95 -4 127 10 21 9 80 19 129 22 107 6 217 39
295 87 31 19 67 37 82 41 14 4 44 24 66 45 21 21 59 48 83 60 24 12 76 47 115
76 39 30 74 54 78 54 5 0 6 -22 2 -49 -5 -37 -3 -51 9 -61 8 -7 15 -18 15 -25
0 -17 93 -84 117 -85 10 0 39 -3 64 -6 39 -5 50 -2 76 20 40 33 57 76 49 123
-3 21 -10 90 -14 153 -10 129 -24 170 -65 185 -23 8 -36 5 -68 -12 -36 -20
-39 -20 -39 -4 0 10 -9 30 -21 45 -29 37 -75 35 -125 -5z m108 -6 c10 -9 18
-28 18 -43 0 -23 -7 -31 -42 -45 -24 -9 -90 -20 -148 -25 -122 -8 -133 -12
-225 -75 -88 -60 -156 -84 -212 -74 -23 4 -83 10 -133 13 -76 4 -94 8 -106 24
-12 18 -11 20 20 25 19 3 51 1 72 -4 22 -4 60 -9 85 -9 39 0 48 4 67 29 28 38
134 91 182 91 20 0 51 -5 68 -11 25 -9 43 -7 84 6 70 23 144 60 180 90 34 29
64 32 90 8z m152 -49 c20 -20 24 -38 29 -149 3 -49 11 -111 18 -137 14 -50 10
-64 -30 -116 -19 -25 -63 -31 -128 -17 -40 9 -42 27 -8 67 14 16 25 42 25 57
0 15 -11 42 -25 61 -31 43 -31 50 1 50 14 0 23 4 19 10 -3 6 -19 10 -34 10
-58 0 -132 -32 -208 -89 -85 -63 -136 -93 -154 -89 -7 2 -24 -15 -39 -36 -15
-21 -39 -45 -53 -53 -33 -17 -35 -7 -5 24 12 13 19 26 15 29 -3 4 -35 -22 -69
-58 -46 -47 -76 -69 -112 -81 -64 -22 -69 -21 -54 6 7 12 12 56 12 99 l0 78
33 6 c18 3 42 4 53 1 11 -3 22 -1 25 3 9 14 -34 22 -80 15 -39 -5 -45 -3 -56
17 -6 13 -21 33 -32 46 l-20 22 26 0 c15 0 57 -5 94 -12 74 -12 145 -5 138 15
-3 7 16 25 43 40 26 15 69 42 96 60 47 30 55 32 142 32 51 1 90 -3 88 -7 -8
-13 34 -9 71 6 19 8 35 22 35 30 0 9 4 16 9 16 4 0 25 14 46 30 42 34 66 37
89 14z m-184 -74 c-8 -5 -22 -9 -30 -9 -10 0 -8 3 5 9 27 12 43 12 25 0z
m-1806 -49 c35 -51 44 -112 22 -146 -13 -20 -25 -25 -58 -25 -40 0 -78 -21
-78 -43 0 -6 9 -2 20 8 17 15 31 17 89 11 53 -4 78 -2 107 11 23 9 81 19 139
23 74 5 117 13 163 32 61 25 65 26 108 11 l44 -15 -23 -19 c-27 -22 -6 -25 28
-3 23 15 25 14 69 -26 62 -57 84 -116 67 -178 -20 -75 -46 -108 -109 -137 -31
-14 -69 -38 -84 -52 l-28 -27 0 57 c0 54 1 57 24 57 14 0 28 5 31 10 4 6 -11
10 -40 8 -58 -2 -74 12 -51 46 9 15 12 26 6 26 -6 0 -19 -14 -28 -31 -17 -30
-18 -31 -84 -26 -57 4 -76 0 -120 -20 -43 -20 -62 -23 -100 -18 -32 5 -48 3
-48 -4 0 -6 12 -11 28 -11 19 0 23 -3 13 -9 -9 -6 -10 -11 -2 -15 6 -4 39 5
73 20 48 21 83 28 148 31 126 6 124 9 126 -174 2 -131 -1 -161 -26 -263 -16
-63 -31 -135 -34 -160 -8 -64 -27 -77 -148 -104 -14 -3 -47 -22 -72 -41 -44
-34 -76 -45 -76 -26 0 4 -12 6 -26 3 -25 -4 -26 -4 -13 19 18 34 127 139 144
139 8 0 15 5 15 10 0 35 -108 -50 -160 -125 -20 -29 -36 -42 -45 -39 -21 9 29
78 100 138 67 58 66 75 -2 20 -57 -47 -90 -83 -98 -106 -7 -19 -25 -25 -25 -9
0 5 33 43 73 84 70 73 74 75 131 81 81 9 94 18 102 72 5 37 1 59 -20 114 -30
77 -33 91 -22 139 11 48 -16 37 -28 -12 -7 -28 -14 -36 -26 -32 -10 3 -28 -7
-45 -25 -23 -24 -37 -30 -72 -30 -55 0 -101 23 -109 54 -4 17 -19 30 -47 41
-23 9 -56 33 -73 53 -18 20 -36 33 -40 29 -5 -4 -2 -12 5 -16 16 -11 6 -16
-41 -25 l-38 -7 0 44 c0 40 -13 67 -32 67 -5 0 -3 -9 4 -20 11 -17 9 -32 -12
-92 -23 -67 -27 -73 -55 -76 -37 -4 -104 39 -168 106 -51 55 -65 105 -48 170
22 81 80 122 174 122 50 0 58 -3 85 -35 17 -19 42 -37 56 -41 30 -7 76 2 76
16 0 5 -7 7 -15 4 -24 -10 -18 29 8 54 13 12 38 25 56 28 27 6 33 4 38 -15 6
-23 23 -29 23 -8 0 43 -76 50 -126 12 l-32 -24 -7 26 c-5 20 3 45 29 97 19 39
38 87 41 106 17 100 25 115 74 131 66 23 66 23 95 -20z m745 3 c17 -4 28 -10
26 -14 -3 -5 9 -11 27 -15 18 -4 62 -23 97 -42 58 -33 69 -35 124 -30 55 5 61
3 84 -21 40 -43 56 -83 61 -153 5 -68 -8 -129 -32 -148 -7 -6 -58 -15 -112
-21 -55 -5 -117 -17 -139 -26 -37 -15 -117 -16 -132 0 -3 3 1 23 10 43 9 21
19 52 22 70 7 35 -10 108 -27 119 -8 5 -9 0 -4 -17 4 -13 10 -42 13 -65 7 -52
-26 -130 -59 -143 -13 -5 -24 -8 -25 -7 -1 1 7 21 19 45 34 69 35 122 3 186
-31 64 -64 89 -172 130 -40 15 -70 32 -67 36 10 17 60 9 122 -21 72 -34 72
-34 72 -20 0 6 -20 20 -46 32 -40 20 -43 24 -28 35 23 17 11 28 -14 14 -26
-14 -60 -15 -46 -1 31 31 148 49 223 34z m-920 -41 c-10 -21 -19 -49 -19 -64
0 -15 -16 -57 -35 -93 -19 -37 -35 -79 -35 -94 0 -15 -7 -35 -14 -44 -12 -17
-14 -17 -31 2 -10 11 -24 20 -32 20 -10 0 -7 11 11 43 13 23 39 78 57 122 20
49 46 93 66 113 45 42 55 41 32 -5z m1134 -14 c25 -31 15 -34 -30 -10 -67 35
-73 43 -28 37 24 -3 47 -14 58 -27z m891 -65 c21 -33 26 -50 20 -64 -9 -18
-10 -18 -49 0 -43 20 -55 18 -55 -8 0 -12 3 -13 11 -5 9 9 19 8 40 -2 25 -14
27 -17 16 -44 -14 -37 -35 -29 -67 26 -16 28 -19 42 -12 58 6 13 7 28 1 36
-13 21 -11 25 14 37 38 19 51 13 81 -34z m-2091 -254 c6 -22 0 -25 -22 -11 -8
5 -11 16 -8 26 8 20 23 13 30 -15z m-372 -117 c-12 -20 -14 -14 -5 12 4 9 9
14 11 11 3 -2 0 -13 -6 -23z"/>
<path d="M2550 1480 c-8 -5 -13 -10 -10 -10 60 -10 93 -1 54 14 -21 8 -26 7
-44 -4z"/>
<path d="M2137 1364 c-21 -14 -55 -33 -75 -42 -27 -11 -32 -17 -19 -20 18 -4
146 66 147 81 0 13 -14 8 -53 -19z"/>
<path d="M2713 1423 c-22 -8 -14 -25 7 -18 12 4 27 1 35 -5 12 -10 15 -9 15 3
0 21 -29 32 -57 20z"/>
<path d="M2452 1314 c-17 -18 -53 -40 -80 -49 -81 -29 -79 -28 -55 -32 39 -7
183 77 183 107 0 16 -13 9 -48 -26z"/>
<path d="M2173 1236 c-43 -16 -52 -26 -21 -26 14 0 36 9 49 20 27 22 19 23
-28 6z"/>
<path d="M2385 1230 c-4 -6 -25 -20 -48 -32 -23 -12 -36 -23 -29 -25 15 -6
102 44 102 57 0 13 -17 13 -25 0z"/>
<path d="M2753 1122 c-24 -2 -43 -7 -43 -13 0 -13 77 -11 85 2 9 14 7 14 -42
11z"/>
<path d="M2680 1094 c0 -8 5 -12 10 -9 6 3 10 10 10 16 0 5 -4 9 -10 9 -5 0
-10 -7 -10 -16z"/>
<path d="M2053 1062 c-58 -28 -73 -51 -20 -28 67 28 87 39 87 48 0 12 -10 9
-67 -20z"/>
<path d="M685 1317 c-4 -11 -3 -23 3 -29 12 -12 62 -2 62 12 0 6 -11 8 -24 4
-18 -4 -25 -1 -29 13 -4 17 -4 17 -12 0z"/>
<path d="M1158 1203 c-10 -2 -18 -9 -18 -15 0 -12 70 -2 85 13 9 9 -34 11 -67
2z"/>
<path d="M1205 1160 c-22 -5 -80 -9 -130 -10 -107 -2 -125 -6 -125 -27 0 -9
-6 -13 -14 -10 -7 3 -34 9 -60 12 -25 4 -46 11 -46 16 0 16 -25 10 -62 -16
-28 -19 -45 -24 -65 -19 -27 6 -27 6 -11 -12 17 -17 19 -17 63 4 52 25 56 26
109 11 l39 -11 -43 -19 c-53 -24 -72 -38 -65 -50 3 -4 34 7 68 26 84 45 176
75 235 75 60 0 153 17 166 30 12 12 0 11 -59 0z"/>
<path d="M1349 1125 c-13 -14 -48 -30 -77 -37 -55 -13 -69 -28 -26 -28 32 0
130 46 138 65 9 25 -10 25 -35 0z"/>
<path d="M680 959 c-89 -60 -93 -64 -58 -55 23 5 26 3 22 -17 -5 -21 -4 -21 8
-2 18 28 78 87 108 107 16 11 20 17 10 17 -8 1 -49 -22 -90 -50z"/>
<path d="M875 1003 c-29 -7 -45 -23 -45 -43 0 -10 -14 -32 -31 -50 -26 -25
-30 -36 -25 -60 6 -34 34 -80 47 -80 13 0 11 12 -6 34 -18 24 -19 67 -2 87 6
9 25 24 42 34 24 15 26 19 12 24 -31 11 -1 31 64 42 35 6 65 12 68 15 6 5 -98
3 -124 -3z"/>
<path d="M1080 892 c-8 -2 -25 -14 -38 -25 -19 -17 -26 -19 -42 -10 -15 10
-19 9 -24 -3 -15 -40 29 -45 72 -9 17 14 35 25 40 25 14 0 25 17 15 23 -5 2
-15 2 -23 -1z"/>
<path d="M1160 881 c0 -12 49 -51 64 -51 6 0 -4 14 -22 30 -36 32 -42 35 -42
21z"/>
<path d="M631 820 c9 -5 22 -22 28 -38 13 -32 81 -76 109 -70 12 3 1 12 -33
30 -29 15 -57 40 -67 57 -9 17 -25 31 -35 31 -16 -1 -16 -2 -2 -10z"/>
<path d="M1062 798 c3 -7 13 -15 24 -17 24 -4 34 -19 34 -50 0 -19 3 -22 11
-14 18 18 1 61 -31 78 -35 18 -43 19 -38 3z"/>
<path d="M817 732 c-25 -26 -39 -81 -17 -67 6 3 10 13 10 22 0 9 10 27 22 40
12 13 19 25 16 28 -2 3 -17 -8 -31 -23z"/>
<path d="M1167 403 c-11 -19 -17 -72 -9 -77 5 -3 12 13 16 36 6 39 3 58 -7 41z"/>
<path d="M955 230 c-27 -27 -47 -52 -44 -54 4 -4 109 91 109 100 0 13 -21 -2
-65 -46z"/>
<path d="M1691 1187 c-15 -19 -26 -77 -13 -77 9 0 35 80 28 87 -2 2 -8 -3 -15
-10z"/>
<path d="M1690 1005 c-19 -8 -47 -14 -62 -14 -38 -1 -36 -21 2 -21 43 0 37
-17 -10 -31 -47 -14 -52 -29 -11 -29 22 0 38 10 63 40 l34 39 107 -2 c73 -1
110 2 119 11 9 9 0 12 -47 12 -33 0 -82 2 -110 4 -29 3 -65 -1 -85 -9z"/>
<path d="M2602 1138 c-14 -14 -16 -28 -3 -28 9 0 24 30 18 36 -2 2 -9 -2 -15
-8z"/>
</g>
</svg>
