<?xml version="1.0" standalone="no"?>
<!DOCTYPE svg PUBLIC "-//W3C//DTD SVG 20010904//EN"
 "http://www.w3.org/TR/2001/REC-SVG-20010904/DTD/svg10.dtd">
<svg version="1.0" xmlns="http://www.w3.org/2000/svg"
 width="266.000000pt" height="320.000000pt" viewBox="0 0 266.000000 320.000000"
 preserveAspectRatio="xMidYMid meet">
<metadata>
Created by potrace 1.16, written by Peter Selinger 2001-2019
</metadata>
<g transform="translate(0.000000,320.000000) scale(0.100000,-0.100000)"
fill="#ffffff" stroke="none">
<path d="M987 2636 c-80 -30 -111 -80 -109 -181 1 -38 4 -87 8 -109 4 -24 3
-36 -3 -33 -13 8 -135 -12 -147 -24 -6 -5 -32 -9 -58 -9 -41 0 -48 3 -52 23
-21 103 -32 134 -60 170 -45 59 -86 80 -137 72 -72 -12 -149 -112 -165 -214
l-6 -40 -67 -3 c-63 -3 -66 -4 -66 -28 0 -24 3 -25 61 -28 l61 -3 6 -69 c7
-87 39 -160 88 -205 70 -63 160 -42 220 52 30 48 59 129 59 167 0 35 13 43 58
38 31 -3 42 -9 42 -21 0 -9 6 -28 14 -43 22 -42 28 -99 17 -167 -13 -80 0
-148 42 -216 38 -62 53 -75 90 -75 25 0 45 11 105 61 11 9 22 3 49 -22 19 -19
43 -46 53 -60 l19 -26 -52 0 c-29 0 -81 -8 -117 -17 -59 -16 -72 -24 -146 -99
-93 -95 -104 -112 -104 -164 0 -32 7 -45 36 -74 20 -18 56 -63 79 -99 24 -36
75 -96 114 -134 39 -38 71 -76 71 -85 0 -33 -91 -122 -159 -155 -54 -25 -67
-36 -69 -57 -3 -22 5 -31 41 -52 62 -37 130 -27 217 31 34 23 73 42 87 42 38
0 83 28 83 52 0 11 -20 71 -44 132 -24 61 -54 145 -66 186 -26 86 -44 126 -73
158 -11 12 -16 22 -11 23 13 1 44 7 71 14 20 5 23 2 23 -25 0 -20 9 -40 26
-57 15 -15 42 -53 61 -86 20 -32 73 -96 118 -140 109 -107 115 -129 59 -234
-30 -58 -54 -86 -106 -129 -38 -30 -68 -61 -68 -69 0 -41 159 -67 232 -38 44
17 188 152 188 177 0 7 -11 46 -25 87 -15 41 -39 131 -55 201 -32 143 -37 155
-91 213 l-39 42 45 1 c59 2 93 21 139 79 l38 48 -6 80 c-4 55 -13 95 -30 128
-13 27 -19 44 -13 38 21 -21 63 -11 110 25 69 54 96 138 112 349 3 44 8 95 11
113 l5 32 74 0 74 0 6 -57 c14 -130 63 -225 129 -257 40 -19 64 -20 103 -5 67
25 132 127 154 241 l11 57 92 3 c90 3 91 3 94 29 3 23 -1 27 -35 32 -21 4 -63
7 -94 7 l-56 0 -7 43 c-12 79 -37 137 -81 184 -41 46 -45 48 -96 48 -40 0 -62
-6 -85 -22 -43 -31 -90 -107 -107 -173 l-14 -55 -72 -3 c-59 -2 -76 1 -96 16
-14 11 -54 25 -90 32 -59 11 -68 11 -85 -5 -11 -10 -20 -25 -20 -33 0 -23
-149 -8 -241 23 -41 14 -83 25 -94 25 -12 0 -30 15 -43 36 -23 35 -23 39 -11
100 11 58 11 68 -7 110 -10 26 -31 56 -46 67 -35 26 -120 32 -171 13z m176
-56 c30 -33 30 -34 23 -122 -6 -98 1 -123 49 -168 20 -18 28 -21 34 -12 8 14
61 7 61 -8 0 -5 18 -11 40 -15 71 -12 140 -93 140 -164 l0 -29 -47 18 c-69 26
-113 34 -113 21 0 -6 7 -11 16 -11 8 0 34 -9 57 -19 24 -11 56 -23 72 -27 69
-16 90 -68 49 -121 -29 -38 -47 -133 -25 -133 6 0 11 17 11 40 0 36 7 48 59
103 42 46 60 74 65 103 5 21 13 42 18 45 18 12 0 38 -37 56 -19 9 -35 23 -35
31 0 10 3 12 13 4 8 -7 18 -6 31 3 23 18 48 8 41 -16 -3 -10 -2 -26 4 -36 5
-10 13 -27 17 -38 6 -18 8 -18 11 -2 3 9 9 17 14 17 5 0 9 5 9 10 0 6 -9 10
-20 10 -23 0 -27 29 -8 48 12 12 68 17 68 6 0 -3 -5 -15 -12 -27 -7 -13 -11
-57 -9 -109 3 -95 -35 -273 -49 -233 -6 16 -11 11 -28 -29 -12 -26 -20 -52
-17 -56 7 -11 -40 -40 -65 -40 -12 0 -19 4 -15 10 3 5 12 7 20 3 8 -3 15 0 15
7 0 9 -12 11 -40 7 -51 -7 -76 13 -118 91 -18 33 -39 65 -48 72 -8 8 -22 27
-31 44 l-16 30 32 -27 c30 -25 96 -46 108 -34 3 4 -7 11 -23 18 -84 33 -94 39
-94 59 0 33 -28 23 -54 -19 -37 -59 -124 -79 -201 -47 -44 19 -64 51 -72 115
-4 34 -9 49 -16 42 -15 -15 2 -96 29 -137 14 -20 27 -49 29 -63 6 -47 17 -86
32 -109 13 -22 13 -24 -6 -29 -12 -3 -21 -10 -21 -17 0 -6 -10 4 -22 23 -20
31 -20 35 -5 46 9 7 17 18 17 26 0 10 -3 10 -12 1 -7 -7 -18 -12 -25 -12 -20
0 -15 38 7 52 21 13 28 48 10 48 -5 0 -10 -6 -10 -13 0 -7 -8 -17 -19 -24 -23
-14 -34 -63 -15 -63 8 0 14 -8 14 -17 0 -27 -48 25 -59 65 -9 31 -8 32 19 32
15 0 38 9 51 21 20 18 21 19 4 13 -11 -5 -42 -8 -69 -8 -39 1 -54 6 -68 24
-26 32 -40 95 -32 146 4 30 3 44 -5 44 -6 0 -10 -3 -10 -7 4 -22 -2 -43 -11
-43 -17 0 -12 103 6 128 9 13 41 35 72 49 l56 26 14 -22 c8 -11 18 -21 23 -21
15 0 10 22 -8 43 -17 19 -17 20 1 31 52 31 76 59 76 87 0 18 -4 28 -10 24 -5
-3 -10 -15 -10 -25 0 -31 -82 -74 -127 -67 -20 4 -41 11 -46 16 -5 5 -12 49
-14 98 -7 110 8 152 64 182 30 17 52 21 102 18 58 -3 66 -6 94 -37z m-761 -86
c-41 -33 -67 -83 -82 -162 -14 -69 -9 -202 11 -267 11 -39 76 -115 98 -115 20
0 12 15 -18 31 -15 9 -39 38 -52 65 -21 44 -24 62 -24 174 0 153 14 198 82
260 56 51 80 48 123 -12 31 -42 60 -123 60 -164 0 -21 -5 -23 -67 -26 -65 -3
-68 -4 -68 -28 0 -24 3 -25 69 -28 l69 -3 -6 -43 c-16 -116 -84 -219 -152
-232 -75 -14 -143 68 -166 200 -13 81 -1 179 33 257 20 48 86 119 111 119 6 0
-3 -12 -21 -26z m1828 -33 c35 -25 79 -116 87 -178 l6 -53 -71 0 c-53 0 -71
-4 -76 -15 -12 -33 4 -44 72 -47 61 -3 67 -5 70 -26 2 -13 -6 -53 -17 -90 -34
-111 -92 -172 -165 -172 -33 0 -45 7 -77 39 -55 58 -74 124 -73 251 0 85 5
116 24 165 22 58 94 145 119 145 6 0 -6 -17 -28 -39 -59 -59 -76 -120 -76
-271 0 -80 5 -139 14 -164 15 -43 76 -116 97 -116 22 0 16 14 -14 31 -49 28
-74 98 -80 222 -6 139 14 221 67 277 20 20 43 40 51 43 13 5 13 7 0 17 -26 19
42 0 70 -19z m-1390 -191 c0 -11 -4 -20 -10 -20 -5 0 -10 9 -10 20 0 11 5 20
10 20 6 0 10 -9 10 -20z m66 9 c4 -7 1 -10 -7 -7 -8 3 -19 -2 -26 -11 -14 -19
-26 -10 -17 13 7 18 39 22 50 5z m741 -14 c-13 -27 -27 -33 -27 -12 0 14 19
37 31 37 4 0 2 -11 -4 -25z m-1414 5 c9 0 17 -4 17 -10 0 -5 -25 -10 -55 -10
-44 0 -55 3 -55 16 0 14 7 15 38 10 20 -3 45 -6 55 -6z m533 -30 c1 -22 -2
-40 -6 -40 -11 0 -23 57 -15 70 12 20 20 9 21 -30z m33 3 c0 -34 -1 -36 -11
-16 -6 12 -8 29 -5 37 11 27 17 18 16 -21z m179 30 c-10 -2 -26 -2 -35 0 -10
3 -2 5 17 5 19 0 27 -2 18 -5z m703 -35 l-4 -43 -10 33 c-10 32 -8 36 18 52 0
0 -1 -19 -4 -42z m40 24 c-5 -9 -7 -31 -4 -47 4 -29 4 -29 -11 -11 -9 11 -16
24 -16 29 0 15 20 47 31 47 6 0 6 -6 0 -18z m42 -29 c-8 -49 -10 -51 -24 -20
-9 21 -9 30 1 42 21 25 29 17 23 -22z m-1043 11 c0 -15 -11 -16 -92 -10 -50 3
-104 6 -120 6 -15 0 -28 5 -28 10 0 6 47 10 120 10 105 0 120 -2 120 -16z
m207 0 c-3 -3 -12 -4 -19 -1 -8 3 -5 6 6 6 11 1 17 -2 13 -5z m-53 -29 c-20
-14 -54 -8 -54 9 0 8 12 11 35 8 31 -4 34 -6 19 -17z m669 19 c53 -9 46 -24
-12 -24 -34 0 -51 4 -55 15 -6 17 7 18 67 9z m417 -19 c0 -12 -17 -15 -90 -15
-73 0 -90 3 -90 15 0 12 17 15 90 15 73 0 90 -3 90 -15z m-304 -4 c-7 -11 -55
-20 -61 -11 -8 12 7 20 37 20 16 0 27 -4 24 -9z m848 -16 c-7 -17 -119 -20
-246 -8 -120 11 -72 23 92 23 138 0 159 -2 154 -15z m-1712 -36 c-4 -31 -25
-30 -42 2 -13 24 -14 24 18 25 25 1 28 -2 24 -27z m48 11 c-7 -13 -9 -46 -5
-88 5 -51 3 -76 -10 -105 -12 -30 -14 -55 -9 -113 9 -96 31 -97 26 -1 -5 77 4
127 23 127 7 0 15 -17 19 -38 3 -21 15 -47 26 -57 25 -23 25 -47 0 -70 -11
-10 -20 -22 -20 -27 0 -15 21 -8 46 17 l25 25 9 -26 c15 -38 14 -40 -32 -71
-53 -35 -92 -33 -107 5 -7 15 -23 45 -36 67 -24 38 -25 47 -23 165 3 125 10
149 36 127 12 -10 13 -6 7 21 -4 21 -2 38 5 47 18 22 32 18 20 -5z m740 1 c0
-11 11 -28 25 -39 30 -24 33 -73 9 -130 l-16 -37 -10 30 c-6 17 -21 41 -33 55
-12 14 -25 43 -28 65 -3 22 -8 48 -12 58 -6 14 -1 17 29 17 29 0 36 -4 36 -19z
m-236 -306 c-19 -17 -22 -25 -12 -25 9 0 21 7 28 15 19 23 43 0 27 -26 -6 -10
-17 -19 -24 -19 -7 0 -13 -4 -13 -10 0 -15 26 -12 40 5 20 25 34 18 62 -33
l27 -49 -27 -25 c-15 -14 -38 -31 -52 -38 -24 -13 -25 -12 -7 7 18 21 23 53 8
53 -5 0 -12 -10 -15 -22 -7 -23 -7 -23 -15 -3 -10 24 -39 50 -47 42 -3 -2 7
-17 21 -31 39 -39 30 -59 -29 -68 -48 -7 -50 -6 -94 38 l-45 44 32 0 c21 0 40
-8 55 -25 34 -37 43 -31 13 9 -15 18 -23 36 -20 40 3 3 0 12 -7 21 -10 12 -10
15 1 15 10 0 10 3 1 12 -7 7 -38 15 -70 18 -54 5 -57 6 -63 37 -5 26 -3 30 10
25 9 -3 21 -12 26 -19 6 -8 31 -19 55 -24 33 -7 54 -20 77 -47 17 -20 34 -34
38 -30 4 3 -1 15 -10 26 -59 68 -65 72 -102 73 -32 1 -29 3 19 10 64 9 118 33
118 52 0 6 5 4 11 -6 8 -13 4 -22 -17 -42z m-111 -97 c8 -27 7 -28 -34 -34
-30 -5 -36 -2 -52 25 l-18 31 49 0 c43 0 50 -3 55 -22z m477 4 c0 -5 -7 -17
-15 -28 -14 -18 -14 -17 -4 9 12 27 19 34 19 19z m-506 -104 l31 -27 -35 0
c-41 0 -76 22 -64 41 17 28 29 37 33 25 2 -7 18 -24 35 -39z m303 -1 c-3 -8
-28 -21 -56 -28 -27 -7 -48 -16 -45 -21 3 -4 -12 -8 -33 -7 l-38 0 47 16 c26
8 62 28 80 43 32 28 56 26 45 -3z m16 -37 c-4 -15 -14 -20 -42 -20 l-36 1 40
18 c22 11 41 20 42 20 0 1 -1 -8 -4 -19z m-283 -21 c37 0 49 -3 35 -8 -39 -15
-145 6 -145 29 0 5 12 2 28 -6 15 -7 52 -14 82 -15z m-107 -17 c11 -10 34 -16
58 -16 l39 1 -30 -34 c-17 -18 -30 -38 -30 -43 0 -24 -18 -7 -24 22 -7 36 -32
78 -46 78 -5 0 -2 -12 6 -27 7 -16 14 -38 14 -51 0 -13 5 -32 10 -42 8 -15 5
-28 -14 -59 -36 -56 -46 -59 -46 -14 0 75 -66 172 -125 185 -14 3 -6 8 25 16
57 14 139 6 163 -16z m437 -15 c0 -20 -25 1 -28 24 -2 23 -2 23 13 5 8 -11 15
-24 15 -29z m-37 -11 c38 -48 36 -89 -5 -127 -18 -16 -35 -29 -38 -29 -3 0
-23 26 -45 56 -54 76 -82 94 -146 96 -49 1 -51 1 -28 14 32 18 102 17 146 -1
44 -19 49 -19 34 -1 -10 12 -7 15 16 19 15 2 30 5 33 6 3 0 17 -15 33 -33z
m-549 -28 c40 -41 74 -123 60 -146 -12 -19 -24 -25 -84 -43 -44 -14 -70 -49
-36 -49 9 0 16 5 16 10 0 23 32 7 54 -27 27 -41 121 -301 112 -310 -3 -3 2
-19 10 -35 12 -23 13 -33 3 -44 -16 -19 -4 -30 16 -14 12 10 16 8 26 -14 16
-34 1 -51 -59 -65 -26 -7 -69 -27 -97 -46 -37 -25 -66 -35 -111 -40 -41 -4
-64 -3 -69 4 -3 6 2 14 12 17 45 15 48 17 26 21 -35 6 -28 36 13 58 20 11 58
44 85 74 70 78 67 92 -29 194 -44 45 -91 102 -105 127 -15 25 -40 56 -57 69
-41 30 -65 81 -56 117 4 16 40 60 81 101 68 67 77 73 115 73 34 0 48 -6 74
-32z m366 -13 c44 -23 110 -115 110 -153 0 -38 -23 -53 -77 -50 l-38 1 35 4
c36 5 60 18 60 35 0 5 -9 4 -19 -2 -11 -5 -33 -10 -50 -10 -31 0 -92 -43 -79
-56 5 -4 18 1 30 12 12 10 19 14 15 8 -3 -6 17 -33 44 -60 66 -64 75 -82 121
-254 51 -185 52 -193 38 -220 -15 -28 -4 -39 15 -14 14 18 14 18 15 -4 0 -13
-16 -38 -37 -61 -21 -20 -46 -49 -56 -64 -22 -33 -76 -57 -129 -57 -35 0 -39
2 -28 15 10 12 10 15 -3 15 -9 0 -20 -7 -25 -17 -7 -11 -15 -14 -28 -8 -13 5
-15 9 -6 12 25 10 11 22 -20 17 l-33 -5 28 23 c93 77 115 102 150 172 21 42
36 84 34 93 -3 10 -8 31 -12 47 -4 17 -41 65 -94 120 -49 50 -100 114 -114
141 -14 28 -37 60 -51 72 -52 45 -31 116 62 213 53 55 87 63 142 35z m202
-144 c-16 -20 -44 -45 -62 -55 l-32 -19 16 31 c9 17 16 38 16 47 0 8 6 15 13
15 7 0 26 14 43 31 28 29 29 30 32 9 2 -13 -8 -37 -26 -59z m-742 -635 c-7 -7
-14 -6 -22 2 -10 10 -10 15 2 22 17 11 34 -10 20 -24z"/>
<path d="M1154 2445 c1 -33 16 -33 16 0 0 14 -4 25 -9 25 -5 0 -8 -11 -7 -25z"/>
<path d="M1121 2335 c-20 -47 -25 -85 -12 -85 6 0 11 9 11 21 0 11 5 29 11 40
5 11 8 28 6 37 -3 13 -7 9 -16 -13z"/>
<path d="M1272 2235 c-26 -30 -27 -35 -7 -35 8 0 15 4 15 10 0 5 10 18 22 30
16 15 18 20 7 20 -9 0 -25 -11 -37 -25z"/>
<path d="M990 2190 c0 -11 7 -23 15 -26 8 -4 15 -12 15 -20 0 -8 5 -14 10 -14
17 0 11 21 -15 52 -23 27 -25 28 -25 8z"/>
<path d="M1136 2175 c-11 -8 -28 -15 -38 -15 -10 0 -18 -7 -18 -15 0 -19 3
-19 50 5 22 11 48 20 60 20 11 0 20 5 20 10 0 15 -52 11 -74 -5z"/>
<path d="M857 1753 c-14 -14 -6 -19 23 -15 17 2 30 8 30 13 0 10 -43 12 -53 2z"/>
<path d="M1381 1756 c-8 -14 -12 -29 -8 -32 7 -7 29 34 25 47 -2 6 -10 -1 -17
-15z"/>
<path d="M1320 1681 c0 -11 5 -23 10 -26 6 -3 10 3 10 14 0 11 -4 23 -10 26
-5 3 -10 -3 -10 -14z"/>
<path d="M914 1485 c-7 -19 -14 -41 -14 -48 0 -8 -7 -20 -15 -27 -19 -16 -19
-30 -1 -30 19 0 22 6 45 79 20 65 10 84 -15 26z"/>
<path d="M961 1414 c-22 -28 -27 -54 -11 -54 6 0 10 4 10 9 0 5 12 23 26 40
19 23 22 31 11 31 -9 0 -25 -12 -36 -26z"/>
<path d="M778 1400 c31 -29 82 -41 82 -20 0 6 -11 10 -23 10 -13 0 -32 9 -42
20 -10 11 -25 20 -34 20 -11 0 -6 -10 17 -30z"/>
<path d="M800 1309 c0 -24 4 -38 10 -34 6 3 10 22 10 41 0 19 -4 34 -10 34 -5
0 -10 -18 -10 -41z"/>
<path d="M870 1245 c0 -3 14 -33 31 -67 31 -61 82 -118 106 -118 23 0 14 16
-26 48 -22 18 -51 56 -66 87 -15 30 -31 55 -36 55 -5 0 -9 -2 -9 -5z"/>
<path d="M1005 853 c-10 -14 -29 -37 -44 -49 -20 -18 -22 -23 -10 -24 17 0 89
73 89 90 0 18 -18 10 -35 -17z"/>
<path d="M1220 1451 c0 -6 7 -11 15 -11 8 0 17 -11 21 -25 7 -30 29 -50 39
-35 3 5 2 10 -3 10 -5 0 -13 15 -18 33 -7 22 -17 33 -32 35 -12 2 -22 -1 -22
-7z"/>
<path d="M1240 1348 c0 -7 -3 -31 -6 -53 -5 -38 -4 -39 10 -21 18 22 21 72 6
81 -5 3 -10 0 -10 -7z"/>
<path d="M1238 1203 c34 -33 69 -80 83 -110 13 -28 27 -49 31 -47 14 9 -73
164 -107 190 -63 48 -67 26 -7 -33z"/>
<path d="M1448 780 c-6 -13 -28 -113 -28 -125 0 -3 4 -5 10 -5 13 0 32 75 28
113 -3 20 -6 27 -10 17z"/>
<path d="M1290 634 c0 -11 71 -34 105 -34 36 0 31 17 -7 23 -18 4 -48 9 -65
13 -18 3 -33 2 -33 -2z"/>
</g>
</svg>
